<svg xmlns="http://www.w3.org/2000/svg" xmlns:xlink="http://www.w3.org/1999/xlink" xmlns:lucid="lucid" width="275" height="170"><g transform="translate(-924 -730)" lucid:page-tab-id="0_0"><path d="M0 0h1760v1360H0z" fill="#fff"/><path d="M940 488a8 8 0 0 1 8-8h224a8 8 0 0 1 8 8v216a8 8 0 0 1-8 8H948a8 8 0 0 1-8-8z" fill="#fff"/><path d="M940 488a8 8 0 0 1 8-8h224a8 8 0 0 1 8 8v216a8 8 0 0 1-8 8H948a8 8 0 0 1-8-8zM940 520h240M1000 520v192M1120 520v192" stroke="#333" fill="none"/><use xlink:href="#a" transform="matrix(1,0,0,1,950,480) translate(57.074999999999996 23.6)"/><use xlink:href="#b" transform="matrix(1,0,0,1,945,522.5) translate(13 17.1)"/><use xlink:href="#c" transform="matrix(1,0,0,1,1005,522.5) translate(10.549999999999997 17.1)"/><use xlink:href="#d" transform="matrix(1,0,0,1,1125,522.5) translate(-2.9750000000000014 17.1)"/><use xlink:href="#e" transform="matrix(1,0,0,1,1005,554.5) translate(3.049999999999997 17.1)"/><use xlink:href="#d" transform="matrix(1,0,0,1,1125,554.5) translate(-2.9750000000000014 17.1)"/><use xlink:href="#f" transform="matrix(1,0,0,1,1005,586.5) translate(5.574999999999996 17.1)"/><use xlink:href="#g" transform="matrix(1,0,0,1,1125,586.5) translate(-5.774999999999999 17.1)"/><use xlink:href="#h" transform="matrix(1,0,0,1,1005,618.5) translate(29.5 17.1)"/><use xlink:href="#g" transform="matrix(1,0,0,1,1125,618.5) translate(-5.774999999999999 17.1)"/><use xlink:href="#i" transform="matrix(1,0,0,1,1005,650.5) translate(30.025 17.1)"/><use xlink:href="#g" transform="matrix(1,0,0,1,1125,650.5) translate(-5.774999999999999 17.1)"/><use xlink:href="#j" transform="matrix(1,0,0,1,1005,682.5) translate(16.025 17.1)"/><use xlink:href="#g" transform="matrix(1,0,0,1,1125,682.5) translate(-5.774999999999999 17.1)"/><path d="M940 754.67a8 8 0 0 1 8-8h224a8 8 0 0 1 8 8v120a8 8 0 0 1-8 8H948a8 8 0 0 1-8-8z" fill="#fff"/><path d="M940 754.67a8 8 0 0 1 8-8h224a8 8 0 0 1 8 8v120a8 8 0 0 1-8 8H948a8 8 0 0 1-8-8zM940 786.67h240M1000 786.67v96M1120 786.67v96" stroke="#333" fill="none"/><use xlink:href="#k" transform="matrix(1,0,0,1,950,746.6666666666667) translate(71.57499999999999 23.6)"/><use xlink:href="#b" transform="matrix(1,0,0,1,945,789.1666666666667) translate(13 17.1)"/><use xlink:href="#l" transform="matrix(1,0,0,1,1005,789.1666666666667) translate(27.074999999999996 17.1)"/><use xlink:href="#d" transform="matrix(1,0,0,1,1125,789.1666666666667) translate(-2.9750000000000014 17.1)"/><use xlink:href="#m" transform="matrix(1,0,0,1,1005,821.1666666666667) translate(19.574999999999996 17.1)"/><use xlink:href="#d" transform="matrix(1,0,0,1,1125,821.1666666666667) translate(-2.9750000000000014 17.1)"/><use xlink:href="#n" transform="matrix(1,0,0,1,1005,853.1666666666667) translate(22.099999999999994 17.1)"/><use xlink:href="#g" transform="matrix(1,0,0,1,1125,853.1666666666667) translate(-5.774999999999999 17.1)"/><defs><path fill="#333" d="M30-248c118-7 216 8 213 122C240-48 200 0 122 0H30v-248zM63-27c89 8 146-16 146-99s-60-101-146-95v194" id="o"/><path fill="#333" d="M33 0v-248h34V0H33" id="p"/><path fill="#333" d="M240 0l2-218c-23 76-54 145-80 218h-23L58-218 59 0H30v-248h44l77 211c21-75 51-140 76-211h43V0h-30" id="q"/><path fill="#333" d="M-5 72V49h209v23H-5" id="r"/><path fill="#333" d="M30-248c87 1 191-15 191 75 0 78-77 80-158 76V0H30v-248zm33 125c57 0 124 11 124-50 0-59-68-47-124-48v98" id="s"/><path fill="#333" d="M114-163C36-179 61-72 57 0H25l-1-190h30c1 12-1 29 2 39 6-27 23-49 58-41v29" id="t"/><path fill="#333" d="M100-194c62-1 85 37 85 99 1 63-27 99-86 99S16-35 15-95c0-66 28-99 85-99zM99-20c44 1 53-31 53-75 0-43-8-75-51-75s-53 32-53 75 10 74 51 75" id="u"/><path fill="#333" d="M85-194c31 0 48 13 60 33l-1-100h32l1 261h-30c-2-10 0-23-3-31C134-8 116 4 85 4 32 4 16-35 15-94c0-66 23-100 70-100zm9 24c-40 0-46 34-46 75 0 40 6 74 45 74 42 0 51-32 51-76 0-42-9-74-50-73" id="v"/><path fill="#333" d="M84 4C-5 8 30-112 23-190h32v120c0 31 7 50 39 49 72-2 45-101 50-169h31l1 190h-30c-1-10 1-25-2-33-11 22-28 36-60 37" id="w"/><path fill="#333" d="M59-47c-2 24 18 29 38 22v24C64 9 27 4 27-40v-127H5v-23h24l9-43h21v43h35v23H59v120" id="x"/><g id="a"><use transform="matrix(0.05,0,0,0.05,0,0)" xlink:href="#o"/><use transform="matrix(0.05,0,0,0.05,12.950000000000001,0)" xlink:href="#p"/><use transform="matrix(0.05,0,0,0.05,17.950000000000003,0)" xlink:href="#q"/><use transform="matrix(0.05,0,0,0.05,32.900000000000006,0)" xlink:href="#r"/><use transform="matrix(0.05,0,0,0.05,42.900000000000006,0)" xlink:href="#s"/><use transform="matrix(0.05,0,0,0.05,54.900000000000006,0)" xlink:href="#t"/><use transform="matrix(0.05,0,0,0.05,60.85,0)" xlink:href="#u"/><use transform="matrix(0.05,0,0,0.05,70.85000000000001,0)" xlink:href="#v"/><use transform="matrix(0.05,0,0,0.05,80.85000000000001,0)" xlink:href="#w"/><use transform="matrix(0.05,0,0,0.05,90.85000000000001,0)" xlink:href="#x"/><use transform="matrix(0.05,0,0,0.05,95.85000000000001,0)" xlink:href="#u"/></g><path fill="#333" d="M194 0L95-120 63-95V0H30v-248h33v124l119-124h40L117-140 236 0h-42" id="y"/><g id="b"><use transform="matrix(0.05,0,0,0.05,0,0)" xlink:href="#s"/><use transform="matrix(0.05,0,0,0.05,12,0)" xlink:href="#y"/></g><path fill="#333" d="M115-194c55 1 70 41 70 98S169 2 115 4C84 4 66-9 55-30l1 105H24l-1-265h31l2 30c10-21 28-34 59-34zm-8 174c40 0 45-34 45-75s-6-73-45-74c-42 0-51 32-51 76 0 43 10 73 51 73" id="z"/><g id="c"><use transform="matrix(0.05,0,0,0.05,0,0)" xlink:href="#p"/><use transform="matrix(0.05,0,0,0.05,5,0)" xlink:href="#o"/><use transform="matrix(0.05,0,0,0.05,17.950000000000003,0)" xlink:href="#r"/><use transform="matrix(0.05,0,0,0.05,27.950000000000003,0)" xlink:href="#z"/><use transform="matrix(0.05,0,0,0.05,37.95,0)" xlink:href="#t"/><use transform="matrix(0.05,0,0,0.05,43.900000000000006,0)" xlink:href="#u"/><use transform="matrix(0.05,0,0,0.05,53.900000000000006,0)" xlink:href="#v"/><use transform="matrix(0.05,0,0,0.05,63.900000000000006,0)" xlink:href="#w"/><use transform="matrix(0.05,0,0,0.05,73.9,0)" xlink:href="#x"/><use transform="matrix(0.05,0,0,0.05,78.9,0)" xlink:href="#u"/></g><path fill="#333" d="M117-194c89-4 53 116 60 194h-32v-121c0-31-8-49-39-48C34-167 62-67 57 0H25l-1-190h30c1 10-1 24 2 32 11-22 29-35 61-36" id="A"/><path fill="#333" d="M100-194c63 0 86 42 84 106H49c0 40 14 67 53 68 26 1 43-12 49-29l28 8c-11 28-37 45-77 45C44 4 14-33 15-96c1-61 26-98 85-98zm52 81c6-60-76-77-97-28-3 7-6 17-6 28h103" id="B"/><path fill="#333" d="M177-190C167-65 218 103 67 71c-23-6-38-20-44-43l32-5c15 47 100 32 89-28v-30C133-14 115 1 83 1 29 1 15-40 15-95c0-56 16-97 71-98 29-1 48 16 59 35 1-10 0-23 2-32h30zM94-22c36 0 50-32 50-73 0-42-14-75-50-75-39 0-46 34-46 75s6 73 46 73" id="C"/><g id="d"><use transform="matrix(0.05,0,0,0.05,0,0)" xlink:href="#p"/><use transform="matrix(0.05,0,0,0.05,5,0)" xlink:href="#A"/><use transform="matrix(0.05,0,0,0.05,15,0)" xlink:href="#x"/><use transform="matrix(0.05,0,0,0.05,20,0)" xlink:href="#B"/><use transform="matrix(0.05,0,0,0.05,30,0)" xlink:href="#C"/><use transform="matrix(0.05,0,0,0.05,40,0)" xlink:href="#B"/><use transform="matrix(0.05,0,0,0.05,50,0)" xlink:href="#t"/></g><path fill="#333" d="M212-179c-10-28-35-45-73-45-59 0-87 40-87 99 0 60 29 101 89 101 43 0 62-24 78-52l27 14C228-24 195 4 139 4 59 4 22-46 18-125c-6-104 99-153 187-111 19 9 31 26 39 46" id="D"/><g id="e"><use transform="matrix(0.05,0,0,0.05,0,0)" xlink:href="#D"/><use transform="matrix(0.05,0,0,0.05,12.950000000000001,0)" xlink:href="#u"/><use transform="matrix(0.05,0,0,0.05,22.950000000000003,0)" xlink:href="#v"/><use transform="matrix(0.05,0,0,0.05,32.95,0)" xlink:href="#r"/><use transform="matrix(0.05,0,0,0.05,42.95,0)" xlink:href="#z"/><use transform="matrix(0.05,0,0,0.05,52.95,0)" xlink:href="#t"/><use transform="matrix(0.05,0,0,0.05,58.900000000000006,0)" xlink:href="#u"/><use transform="matrix(0.05,0,0,0.05,68.9,0)" xlink:href="#v"/><use transform="matrix(0.05,0,0,0.05,78.9,0)" xlink:href="#w"/><use transform="matrix(0.05,0,0,0.05,88.9,0)" xlink:href="#x"/><use transform="matrix(0.05,0,0,0.05,93.9,0)" xlink:href="#u"/></g><path fill="#333" d="M190 0L58-211 59 0H30v-248h39L202-35l-2-213h31V0h-41" id="E"/><path fill="#333" d="M210-169c-67 3-38 105-44 169h-31v-121c0-29-5-50-35-48C34-165 62-65 56 0H25l-1-190h30c1 10-1 24 2 32 10-44 99-50 107 0 11-21 27-35 58-36 85-2 47 119 55 194h-31v-121c0-29-5-49-35-48" id="F"/><g id="f"><use transform="matrix(0.05,0,0,0.05,0,0)" xlink:href="#E"/><use transform="matrix(0.05,0,0,0.05,12.950000000000001,0)" xlink:href="#F"/><use transform="matrix(0.05,0,0,0.05,27.900000000000002,0)" xlink:href="#r"/><use transform="matrix(0.05,0,0,0.05,37.900000000000006,0)" xlink:href="#z"/><use transform="matrix(0.05,0,0,0.05,47.900000000000006,0)" xlink:href="#t"/><use transform="matrix(0.05,0,0,0.05,53.85,0)" xlink:href="#u"/><use transform="matrix(0.05,0,0,0.05,63.85,0)" xlink:href="#v"/><use transform="matrix(0.05,0,0,0.05,73.85000000000001,0)" xlink:href="#w"/><use transform="matrix(0.05,0,0,0.05,83.85000000000001,0)" xlink:href="#x"/><use transform="matrix(0.05,0,0,0.05,88.85000000000001,0)" xlink:href="#u"/></g><path fill="#333" d="M137 0h-34L2-248h35l83 218 83-218h36" id="G"/><path fill="#333" d="M141-36C126-15 110 5 73 4 37 3 15-17 15-53c-1-64 63-63 125-63 3-35-9-54-41-54-24 1-41 7-42 31l-33-3c5-37 33-52 76-52 45 0 72 20 72 64v82c-1 20 7 32 28 27v20c-31 9-61-2-59-35zM48-53c0 20 12 33 32 33 41-3 63-29 60-74-43 2-92-5-92 41" id="H"/><path fill="#333" d="M96-169c-40 0-48 33-48 73s9 75 48 75c24 0 41-14 43-38l32 2c-6 37-31 61-74 61-59 0-76-41-82-99-10-93 101-131 147-64 4 7 5 14 7 22l-32 3c-4-21-16-35-41-35" id="I"/><path fill="#333" d="M106-169C34-169 62-67 57 0H25v-261h32l-1 103c12-21 28-36 61-36 89 0 53 116 60 194h-32v-121c2-32-8-49-39-48" id="J"/><g id="g"><use transform="matrix(0.05,0,0,0.05,0,0)" xlink:href="#G"/><use transform="matrix(0.05,0,0,0.05,10.65,0)" xlink:href="#H"/><use transform="matrix(0.05,0,0,0.05,20.65,0)" xlink:href="#t"/><use transform="matrix(0.05,0,0,0.05,26.599999999999994,0)" xlink:href="#I"/><use transform="matrix(0.05,0,0,0.05,35.599999999999994,0)" xlink:href="#J"/><use transform="matrix(0.05,0,0,0.05,45.599999999999994,0)" xlink:href="#H"/><use transform="matrix(0.05,0,0,0.05,55.599999999999994,0)" xlink:href="#t"/></g><path fill="#333" d="M185-189c-5-48-123-54-124 2 14 75 158 14 163 119 3 78-121 87-175 55-17-10-28-26-33-46l33-7c5 56 141 63 141-1 0-78-155-14-162-118-5-82 145-84 179-34 5 7 8 16 11 25" id="K"/><path fill="#333" d="M96-169c-40 0-48 33-48 73s9 75 48 75c24 0 41-14 43-38l32 2c-6 37-31 61-74 61-59 0-76-41-82-99-10-93 101-131 147-64 4 7 5 14 7 22l-32 3c-4-21-16-35-41-35zm3 187c19-1 33 8 33 26 0 31-30 33-64 32V58c18 2 39 4 41-13 1-15-18-13-34-13L87 0h19" id="L"/><path fill="#333" d="M141-36C126-15 110 5 73 4 37 3 15-17 15-53c-1-64 63-63 125-63 3-35-9-54-41-54-24 1-41 7-42 31l-33-3c5-37 33-52 76-52 45 0 72 20 72 64v82c-1 20 7 32 28 27v20c-31 9-61-2-59-35zM48-53c0 20 12 33 32 33 41-3 63-29 60-74-43 2-92-5-92 41zm117-205c-3 23-9 48-36 47-26-1-65-44-74 0H39c4-23 8-48 36-47s64 44 74 0h16" id="M"/><g id="h"><use transform="matrix(0.05,0,0,0.05,0,0)" xlink:href="#K"/><use transform="matrix(0.05,0,0,0.05,12,0)" xlink:href="#B"/><use transform="matrix(0.05,0,0,0.05,22,0)" xlink:href="#L"/><use transform="matrix(0.05,0,0,0.05,31,0)" xlink:href="#M"/><use transform="matrix(0.05,0,0,0.05,41,0)" xlink:href="#u"/></g><path fill="#333" d="M143 4C61 4 22-44 18-125c-5-107 100-154 193-111 17 8 29 25 37 43l-32 9c-13-25-37-40-76-40-61 0-88 39-88 99 0 61 29 100 91 101 35 0 62-11 79-27v-45h-74v-28h105v86C228-13 192 4 143 4" id="N"/><g id="i"><use transform="matrix(0.05,0,0,0.05,0,0)" xlink:href="#N"/><use transform="matrix(0.05,0,0,0.05,14,0)" xlink:href="#t"/><use transform="matrix(0.05,0,0,0.05,19.95,0)" xlink:href="#w"/><use transform="matrix(0.05,0,0,0.05,29.950000000000003,0)" xlink:href="#z"/><use transform="matrix(0.05,0,0,0.05,39.95,0)" xlink:href="#u"/></g><path fill="#333" d="M115-194c53 0 69 39 70 98 0 66-23 100-70 100C84 3 66-7 56-30L54 0H23l1-261h32v101c10-23 28-34 59-34zm-8 174c40 0 45-34 45-75 0-40-5-75-45-74-42 0-51 32-51 76 0 43 10 73 51 73" id="O"/><g id="j"><use transform="matrix(0.05,0,0,0.05,0,0)" xlink:href="#K"/><use transform="matrix(0.05,0,0,0.05,12,0)" xlink:href="#w"/><use transform="matrix(0.05,0,0,0.05,22,0)" xlink:href="#O"/><use transform="matrix(0.05,0,0,0.05,32,0)" xlink:href="#C"/><use transform="matrix(0.05,0,0,0.05,42,0)" xlink:href="#t"/><use transform="matrix(0.05,0,0,0.05,47.95,0)" xlink:href="#w"/><use transform="matrix(0.05,0,0,0.05,57.95,0)" xlink:href="#z"/><use transform="matrix(0.05,0,0,0.05,67.95,0)" xlink:href="#u"/></g><path fill="#333" d="M30 0v-248h33v221h125V0H30" id="P"/><path fill="#333" d="M24-231v-30h32v30H24zM-9 49c24 4 33-6 33-30v-209h32V24c2 40-23 58-65 49V49" id="Q"/><g id="k"><use transform="matrix(0.05,0,0,0.05,0,0)" xlink:href="#o"/><use transform="matrix(0.05,0,0,0.05,12.950000000000001,0)" xlink:href="#p"/><use transform="matrix(0.05,0,0,0.05,17.950000000000003,0)" xlink:href="#q"/><use transform="matrix(0.05,0,0,0.05,32.900000000000006,0)" xlink:href="#r"/><use transform="matrix(0.05,0,0,0.05,42.900000000000006,0)" xlink:href="#P"/><use transform="matrix(0.05,0,0,0.05,52.900000000000006,0)" xlink:href="#u"/><use transform="matrix(0.05,0,0,0.05,62.900000000000006,0)" xlink:href="#Q"/><use transform="matrix(0.05,0,0,0.05,66.85000000000001,0)" xlink:href="#H"/></g><path fill="#333" d="M24 0v-261h32V0H24" id="R"/><g id="l"><use transform="matrix(0.05,0,0,0.05,0,0)" xlink:href="#p"/><use transform="matrix(0.05,0,0,0.05,5,0)" xlink:href="#o"/><use transform="matrix(0.05,0,0,0.05,17.950000000000003,0)" xlink:href="#r"/><use transform="matrix(0.05,0,0,0.05,27.950000000000003,0)" xlink:href="#R"/><use transform="matrix(0.05,0,0,0.05,31.900000000000002,0)" xlink:href="#u"/><use transform="matrix(0.05,0,0,0.05,41.900000000000006,0)" xlink:href="#Q"/><use transform="matrix(0.05,0,0,0.05,45.85000000000001,0)" xlink:href="#H"/></g><g id="m"><use transform="matrix(0.05,0,0,0.05,0,0)" xlink:href="#D"/><use transform="matrix(0.05,0,0,0.05,12.950000000000001,0)" xlink:href="#u"/><use transform="matrix(0.05,0,0,0.05,22.950000000000003,0)" xlink:href="#v"/><use transform="matrix(0.05,0,0,0.05,32.95,0)" xlink:href="#r"/><use transform="matrix(0.05,0,0,0.05,42.95,0)" xlink:href="#R"/><use transform="matrix(0.05,0,0,0.05,46.900000000000006,0)" xlink:href="#u"/><use transform="matrix(0.05,0,0,0.05,56.900000000000006,0)" xlink:href="#Q"/><use transform="matrix(0.05,0,0,0.05,60.85,0)" xlink:href="#H"/></g><g id="n"><use transform="matrix(0.05,0,0,0.05,0,0)" xlink:href="#E"/><use transform="matrix(0.05,0,0,0.05,12.950000000000001,0)" xlink:href="#F"/><use transform="matrix(0.05,0,0,0.05,27.900000000000002,0)" xlink:href="#r"/><use transform="matrix(0.05,0,0,0.05,37.900000000000006,0)" xlink:href="#R"/><use transform="matrix(0.05,0,0,0.05,41.85000000000001,0)" xlink:href="#u"/><use transform="matrix(0.05,0,0,0.05,51.85,0)" xlink:href="#Q"/><use transform="matrix(0.05,0,0,0.05,55.80000000000001,0)" xlink:href="#H"/></g></defs></g></svg>