<svg xmlns="http://www.w3.org/2000/svg" xmlns:xlink="http://www.w3.org/1999/xlink" xmlns:lucid="lucid" width="288" height="262"><g transform="translate(-1206 -713)" lucid:page-tab-id="0_0"><path d="M0 0h1760v1360H0z" fill="#fff"/><path d="M1220 736a8 8 0 0 1 8-8h244a8 8 0 0 1 8 8v216a8 8 0 0 1-8 8h-244a8 8 0 0 1-8-8z" fill="#fff"/><path d="M1220 736a8 8 0 0 1 8-8h244a8 8 0 0 1 8 8v216a8 8 0 0 1-8 8h-244a8 8 0 0 1-8-8zM1220 768h260M1280 768v192M1420 768v192" stroke="#333" fill="none"/><use xlink:href="#a" transform="matrix(1,0,0,1,1230,728) translate(74.05 23.6)"/><use xlink:href="#b" transform="matrix(1,0,0,1,1225,770.5) translate(7.524999999999999 17.1)"/><use xlink:href="#c" transform="matrix(1,0,0,1,1285,770.5) translate(37.074999999999996 17.1)"/><use xlink:href="#d" transform="matrix(1,0,0,1,1425,770.5) translate(-2.9750000000000014 17.1)"/><use xlink:href="#b" transform="matrix(1,0,0,1,1225,802.5) translate(7.524999999999999 17.1)"/><use xlink:href="#e" transform="matrix(1,0,0,1,1285,802.5) translate(20.549999999999997 17.1)"/><use xlink:href="#d" transform="matrix(1,0,0,1,1425,802.5) translate(-2.9750000000000014 17.1)"/><use xlink:href="#b" transform="matrix(1,0,0,1,1225,834.5) translate(7.524999999999999 17.1)"/><use xlink:href="#f" transform="matrix(1,0,0,1,1285,834.5) translate(25.074999999999996 17.1)"/><use xlink:href="#d" transform="matrix(1,0,0,1,1425,834.5) translate(-2.9750000000000014 17.1)"/><use xlink:href="#b" transform="matrix(1,0,0,1,1225,866.5) translate(7.524999999999999 17.1)"/><use xlink:href="#g" transform="matrix(1,0,0,1,1285,866.5) translate(26.049999999999997 17.1)"/><use xlink:href="#d" transform="matrix(1,0,0,1,1425,866.5) translate(-2.9750000000000014 17.1)"/><use xlink:href="#h" transform="matrix(1,0,0,1,1285,898.5) translate(9.024999999999999 17.1)"/><use xlink:href="#d" transform="matrix(1,0,0,1,1425,898.5) translate(-2.9750000000000014 17.1)"/><use xlink:href="#i" transform="matrix(1,0,0,1,1285,930.5) translate(5.049999999999997 17.1)"/><use xlink:href="#j" transform="matrix(1,0,0,1,1425,930.5) translate(-7.400000000000006 17.1)"/><defs><path fill="#333" d="M63-220v92h138v28H63V0H30v-248h175v28H63" id="k"/><path fill="#333" d="M127-220V0H93v-220H8v-28h204v28h-85" id="l"/><path fill="#333" d="M-5 72V49h209v23H-5" id="m"/><path fill="#333" d="M137 0h-34L2-248h35l83 218 83-218h36" id="n"/><path fill="#333" d="M100-194c63 0 86 42 84 106H49c0 40 14 67 53 68 26 1 43-12 49-29l28 8c-11 28-37 45-77 45C44 4 14-33 15-96c1-61 26-98 85-98zm52 81c6-60-76-77-97-28-3 7-6 17-6 28h103" id="o"/><path fill="#333" d="M117-194c89-4 53 116 60 194h-32v-121c0-31-8-49-39-48C34-167 62-67 57 0H25l-1-190h30c1 10-1 24 2 32 11-22 29-35 61-36" id="p"/><path fill="#333" d="M85-194c31 0 48 13 60 33l-1-100h32l1 261h-30c-2-10 0-23-3-31C134-8 116 4 85 4 32 4 16-35 15-94c0-66 23-100 70-100zm9 24c-40 0-46 34-46 75 0 40 6 74 45 74 42 0 51-32 51-76 0-42-9-74-50-73" id="q"/><path fill="#333" d="M141-36C126-15 110 5 73 4 37 3 15-17 15-53c-1-64 63-63 125-63 3-35-9-54-41-54-24 1-41 7-42 31l-33-3c5-37 33-52 76-52 45 0 72 20 72 64v82c-1 20 7 32 28 27v20c-31 9-61-2-59-35zM48-53c0 20 12 33 32 33 41-3 63-29 60-74-43 2-92-5-92 41" id="r"/><path fill="#333" d="M135-143c-3-34-86-38-87 0 15 53 115 12 119 90S17 21 10-45l28-5c4 36 97 45 98 0-10-56-113-15-118-90-4-57 82-63 122-42 12 7 21 19 24 35" id="s"/><g id="a"><use transform="matrix(0.05,0,0,0.05,0,0)" xlink:href="#k"/><use transform="matrix(0.05,0,0,0.05,10.950000000000001,0)" xlink:href="#l"/><use transform="matrix(0.05,0,0,0.05,21.900000000000002,0)" xlink:href="#m"/><use transform="matrix(0.05,0,0,0.05,31.900000000000002,0)" xlink:href="#n"/><use transform="matrix(0.05,0,0,0.05,42.900000000000006,0)" xlink:href="#o"/><use transform="matrix(0.05,0,0,0.05,52.900000000000006,0)" xlink:href="#p"/><use transform="matrix(0.05,0,0,0.05,62.900000000000006,0)" xlink:href="#q"/><use transform="matrix(0.05,0,0,0.05,72.9,0)" xlink:href="#r"/><use transform="matrix(0.05,0,0,0.05,82.9,0)" xlink:href="#s"/></g><path fill="#333" d="M30-248c87 1 191-15 191 75 0 78-77 80-158 76V0H30v-248zm33 125c57 0 124 11 124-50 0-59-68-47-124-48v98" id="t"/><path fill="#333" d="M194 0L95-120 63-95V0H30v-248h33v124l119-124h40L117-140 236 0h-42" id="u"/><g id="b"><use transform="matrix(0.05,0,0,0.05,0,0)" xlink:href="#t"/><use transform="matrix(0.05,0,0,0.05,12,0)" xlink:href="#k"/><use transform="matrix(0.05,0,0,0.05,22.950000000000003,0)" xlink:href="#u"/></g><path fill="#333" d="M33 0v-248h34V0H33" id="v"/><path fill="#333" d="M30-248c118-7 216 8 213 122C240-48 200 0 122 0H30v-248zM63-27c89 8 146-16 146-99s-60-101-146-95v194" id="w"/><path fill="#333" d="M24 0v-261h32V0H24" id="x"/><path fill="#333" d="M100-194c62-1 85 37 85 99 1 63-27 99-86 99S16-35 15-95c0-66 28-99 85-99zM99-20c44 1 53-31 53-75 0-43-8-75-51-75s-53 32-53 75 10 74 51 75" id="y"/><path fill="#333" d="M24-231v-30h32v30H24zM-9 49c24 4 33-6 33-30v-209h32V24c2 40-23 58-65 49V49" id="z"/><g id="c"><use transform="matrix(0.05,0,0,0.05,0,0)" xlink:href="#v"/><use transform="matrix(0.05,0,0,0.05,5,0)" xlink:href="#w"/><use transform="matrix(0.05,0,0,0.05,17.950000000000003,0)" xlink:href="#m"/><use transform="matrix(0.05,0,0,0.05,27.950000000000003,0)" xlink:href="#x"/><use transform="matrix(0.05,0,0,0.05,31.900000000000002,0)" xlink:href="#y"/><use transform="matrix(0.05,0,0,0.05,41.900000000000006,0)" xlink:href="#z"/><use transform="matrix(0.05,0,0,0.05,45.85000000000001,0)" xlink:href="#r"/></g><path fill="#333" d="M59-47c-2 24 18 29 38 22v24C64 9 27 4 27-40v-127H5v-23h24l9-43h21v43h35v23H59v120" id="A"/><path fill="#333" d="M177-190C167-65 218 103 67 71c-23-6-38-20-44-43l32-5c15 47 100 32 89-28v-30C133-14 115 1 83 1 29 1 15-40 15-95c0-56 16-97 71-98 29-1 48 16 59 35 1-10 0-23 2-32h30zM94-22c36 0 50-32 50-73 0-42-14-75-50-75-39 0-46 34-46 75s6 73 46 73" id="B"/><path fill="#333" d="M114-163C36-179 61-72 57 0H25l-1-190h30c1 12-1 29 2 39 6-27 23-49 58-41v29" id="C"/><g id="d"><use transform="matrix(0.05,0,0,0.05,0,0)" xlink:href="#v"/><use transform="matrix(0.05,0,0,0.05,5,0)" xlink:href="#p"/><use transform="matrix(0.05,0,0,0.05,15,0)" xlink:href="#A"/><use transform="matrix(0.05,0,0,0.05,20,0)" xlink:href="#o"/><use transform="matrix(0.05,0,0,0.05,30,0)" xlink:href="#B"/><use transform="matrix(0.05,0,0,0.05,40,0)" xlink:href="#o"/><use transform="matrix(0.05,0,0,0.05,50,0)" xlink:href="#C"/></g><path fill="#333" d="M115-194c55 1 70 41 70 98S169 2 115 4C84 4 66-9 55-30l1 105H24l-1-265h31l2 30c10-21 28-34 59-34zm-8 174c40 0 45-34 45-75s-6-73-45-74c-42 0-51 32-51 76 0 43 10 73 51 73" id="D"/><path fill="#333" d="M84 4C-5 8 30-112 23-190h32v120c0 31 7 50 39 49 72-2 45-101 50-169h31l1 190h-30c-1-10 1-25-2-33-11 22-28 36-60 37" id="E"/><g id="e"><use transform="matrix(0.05,0,0,0.05,0,0)" xlink:href="#v"/><use transform="matrix(0.05,0,0,0.05,5,0)" xlink:href="#w"/><use transform="matrix(0.05,0,0,0.05,17.950000000000003,0)" xlink:href="#m"/><use transform="matrix(0.05,0,0,0.05,27.950000000000003,0)" xlink:href="#D"/><use transform="matrix(0.05,0,0,0.05,37.95,0)" xlink:href="#C"/><use transform="matrix(0.05,0,0,0.05,43.900000000000006,0)" xlink:href="#y"/><use transform="matrix(0.05,0,0,0.05,53.900000000000006,0)" xlink:href="#q"/><use transform="matrix(0.05,0,0,0.05,63.900000000000006,0)" xlink:href="#E"/><use transform="matrix(0.05,0,0,0.05,73.9,0)" xlink:href="#A"/><use transform="matrix(0.05,0,0,0.05,78.9,0)" xlink:href="#y"/></g><path fill="#333" d="M96-169c-40 0-48 33-48 73s9 75 48 75c24 0 41-14 43-38l32 2c-6 37-31 61-74 61-59 0-76-41-82-99-10-93 101-131 147-64 4 7 5 14 7 22l-32 3c-4-21-16-35-41-35" id="F"/><path fill="#333" d="M24-231v-30h32v30H24zM24 0v-190h32V0H24" id="G"/><g id="f"><use transform="matrix(0.05,0,0,0.05,0,0)" xlink:href="#v"/><use transform="matrix(0.05,0,0,0.05,5,0)" xlink:href="#w"/><use transform="matrix(0.05,0,0,0.05,17.950000000000003,0)" xlink:href="#m"/><use transform="matrix(0.05,0,0,0.05,27.950000000000003,0)" xlink:href="#F"/><use transform="matrix(0.05,0,0,0.05,36.95,0)" xlink:href="#x"/><use transform="matrix(0.05,0,0,0.05,40.900000000000006,0)" xlink:href="#G"/><use transform="matrix(0.05,0,0,0.05,44.85000000000001,0)" xlink:href="#o"/><use transform="matrix(0.05,0,0,0.05,54.85,0)" xlink:href="#p"/><use transform="matrix(0.05,0,0,0.05,64.85000000000001,0)" xlink:href="#A"/><use transform="matrix(0.05,0,0,0.05,69.85000000000001,0)" xlink:href="#o"/></g><path fill="#333" d="M210-169c-67 3-38 105-44 169h-31v-121c0-29-5-50-35-48C34-165 62-65 56 0H25l-1-190h30c1 10-1 24 2 32 10-44 99-50 107 0 11-21 27-35 58-36 85-2 47 119 55 194h-31v-121c0-29-5-49-35-48" id="H"/><g id="g"><use transform="matrix(0.05,0,0,0.05,0,0)" xlink:href="#v"/><use transform="matrix(0.05,0,0,0.05,5,0)" xlink:href="#w"/><use transform="matrix(0.05,0,0,0.05,17.950000000000003,0)" xlink:href="#m"/><use transform="matrix(0.05,0,0,0.05,27.950000000000003,0)" xlink:href="#A"/><use transform="matrix(0.05,0,0,0.05,32.95,0)" xlink:href="#o"/><use transform="matrix(0.05,0,0,0.05,42.95,0)" xlink:href="#H"/><use transform="matrix(0.05,0,0,0.05,57.900000000000006,0)" xlink:href="#D"/><use transform="matrix(0.05,0,0,0.05,67.9,0)" xlink:href="#y"/></g><path fill="#333" d="M140-251c81 0 123 46 123 126C263-53 228-8 163 1c7 30 30 48 69 40v23c-55 16-95-15-103-61C56-3 17-48 17-125c0-80 42-126 123-126zm0 227c63 0 89-41 89-101s-29-99-89-99c-61 0-89 39-89 99S79-25 140-24" id="I"/><path fill="#333" d="M108 0H70L1-190h34L89-25l56-165h34" id="J"/><g id="h"><use transform="matrix(0.05,0,0,0.05,0,0)" xlink:href="#I"/><use transform="matrix(0.05,0,0,0.05,14,0)" xlink:href="#A"/><use transform="matrix(0.05,0,0,0.05,19,0)" xlink:href="#q"/><use transform="matrix(0.05,0,0,0.05,29,0)" xlink:href="#o"/><use transform="matrix(0.05,0,0,0.05,39,0)" xlink:href="#m"/><use transform="matrix(0.05,0,0,0.05,49,0)" xlink:href="#J"/><use transform="matrix(0.05,0,0,0.05,58,0)" xlink:href="#o"/><use transform="matrix(0.05,0,0,0.05,68,0)" xlink:href="#p"/><use transform="matrix(0.05,0,0,0.05,78,0)" xlink:href="#q"/><use transform="matrix(0.05,0,0,0.05,88,0)" xlink:href="#G"/><use transform="matrix(0.05,0,0,0.05,91.95,0)" xlink:href="#q"/><use transform="matrix(0.05,0,0,0.05,101.95,0)" xlink:href="#r"/></g><path fill="#333" d="M233-177c-1 41-23 64-60 70L243 0h-38l-65-103H63V0H30v-248c88 3 205-21 203 71zM63-129c60-2 137 13 137-47 0-61-80-42-137-45v92" id="K"/><g id="i"><use transform="matrix(0.05,0,0,0.05,0,0)" xlink:href="#K"/><use transform="matrix(0.05,0,0,0.05,12.950000000000001,0)" xlink:href="#o"/><use transform="matrix(0.05,0,0,0.05,22.950000000000003,0)" xlink:href="#F"/><use transform="matrix(0.05,0,0,0.05,31.950000000000003,0)" xlink:href="#o"/><use transform="matrix(0.05,0,0,0.05,41.95,0)" xlink:href="#G"/><use transform="matrix(0.05,0,0,0.05,45.900000000000006,0)" xlink:href="#A"/><use transform="matrix(0.05,0,0,0.05,50.900000000000006,0)" xlink:href="#r"/><use transform="matrix(0.05,0,0,0.05,60.900000000000006,0)" xlink:href="#m"/><use transform="matrix(0.05,0,0,0.05,70.9,0)" xlink:href="#J"/><use transform="matrix(0.05,0,0,0.05,79.9,0)" xlink:href="#o"/><use transform="matrix(0.05,0,0,0.05,89.9,0)" xlink:href="#p"/><use transform="matrix(0.05,0,0,0.05,99.9,0)" xlink:href="#q"/><use transform="matrix(0.05,0,0,0.05,109.9,0)" xlink:href="#r"/></g><g id="j"><use transform="matrix(0.05,0,0,0.05,0,0)" xlink:href="#w"/><use transform="matrix(0.05,0,0,0.05,12.950000000000001,0)" xlink:href="#o"/><use transform="matrix(0.05,0,0,0.05,22.950000000000003,0)" xlink:href="#F"/><use transform="matrix(0.05,0,0,0.05,31.950000000000003,0)" xlink:href="#G"/><use transform="matrix(0.05,0,0,0.05,35.900000000000006,0)" xlink:href="#H"/><use transform="matrix(0.05,0,0,0.05,50.85000000000001,0)" xlink:href="#r"/><use transform="matrix(0.05,0,0,0.05,60.85,0)" xlink:href="#x"/></g></defs></g></svg>